<svg width="18" height="18" viewBox="0 0 18 18" fill="none" xmlns="http://www.w3.org/2000/svg">
	<path d="M4.12416 10.476L7.52381 13.8777L13.764 7.63719L10.3624 4.23735L4.12416 10.476ZM17.717 5.80658L16.2704 4.35895C15.903 4.55972 15.4804 4.63608 15.066 4.57658C14.6515 4.51709 14.2675 4.32494 13.9714 4.02891C13.6752 3.73288 13.483 3.3489 13.4233 2.93444C13.3637 2.51999 13.4399 2.09737 13.6405 1.72984L12.1939 0.28221C12.0116 0.10143 11.7652 0 11.5084 0C11.2517 0 11.0053 0.10143 10.8229 0.28221L0.282195 10.8235C0.101425 11.0059 0 11.2523 0 11.509C0 11.7658 0.101425 12.0122 0.282195 12.1946L1.72975 13.6403C2.09737 13.439 2.52033 13.3623 2.93521 13.4217C3.35009 13.4812 3.73451 13.6736 4.03081 13.97C4.32712 14.2664 4.51933 14.6509 4.57862 15.0658C4.63792 15.4808 4.56109 15.9037 4.35967 16.2713L5.80723 17.717C5.98933 17.8982 6.23579 18 6.49271 18C6.74963 18 6.99609 17.8982 7.17819 17.717L17.717 7.17762C17.8983 6.99551 18 6.74903 18 6.4921C18 6.23517 17.8983 5.98869 17.717 5.80658ZM7.52381 15.4335L2.56842 10.476L10.3634 2.68153L15.3188 7.63719L7.52381 15.4335Z" fill="#FFBF66" />
</svg>
